<?xml version="1.0" standalone="no"?><!DOCTYPE svg PUBLIC "-//W3C//DTD SVG 1.1//EN" "http://www.w3.org/Graphics/SVG/1.1/DTD/svg11.dtd"><svg width="16" height="16" viewBox="0 0 16 16" version="1.1" xmlns="http://www.w3.org/2000/svg" xmlns:xlink="http://www.w3.org/1999/xlink"><defs><style type="text/css"><![CDATA[
@font-face { font-family: ifont; src: url("http://at.alicdn.com/t/font_1442373896_4754455.eot?#iefix") format("embedded-opentype"), url("http://at.alicdn.com/t/font_1442373896_4754455.woff") format("woff"), url("http://at.alicdn.com/t/font_1442373896_4754455.ttf") format("truetype"), url("http://at.alicdn.com/t/font_1442373896_4754455.svg#ifont") format("svg"); }

]]></style></defs><g class="transform-group"><g transform="scale(0.015625, 0.015625)"><path d="M316.30991 164.225967l0 281.310581 55.644162 0c18.547677 2.077937 27.821516 11.351775 27.821516 27.822646 0 18.547677-9.273839 27.821516-27.821516 27.821516l-55.644162 0 0 15.456774c26.759936 37.096485 53.567356 73.177742 80.374775 108.19629 10.289066 18.547677 9.273839 32.990355-3.090903 43.27829-16.518354 10.336548-29.898322 6.182936-40.187387-12.365872-6.182936-6.182936-11.350645-12.365872-15.456774-18.547677-6.182936-10.289066-13.427451-21.63971-21.63971-34.004452l0 253.489066c-2.076806 16.46974-11.350645 25.743579-27.821516 27.820385-18.547677-2.076806-27.821516-11.350645-27.821516-27.820385L260.666879 593.921357c-22.70242 47.431902-44.341 84.528387-64.918 111.288324-14.442678 18.547677-28.884225 23.716517-43.27829 15.456774-16.519484-14.394065-18.547677-29.850839-6.182936-46.370323 43.27829-55.644162 78.296838-113.316517 105.105388-173.114291l-58.735064 0c-20.625614 0-31.976259-9.273839-34.004452-27.821516 2.028193-16.470871 13.378838-25.744709 34.004452-27.822646l68.008903 0L260.666879 164.225967c0-14.392934 9.273839-22.652676 27.821516-24.730613C304.959265 141.573291 314.233104 149.831902 316.30991 164.225967zM214.296555 235.325773c8.211129 39.173291 15.456774 77.282742 21.63971 114.379226 2.028193 20.625614-4.153612 32.991486-18.547677 37.096485-16.519484 2.077937-26.807419-6.182936-30.913549-24.730613-8.259742-55.644162-15.456774-94.767709-21.63971-117.470129-4.153612-18.547677 1.014096-29.849709 15.456774-34.004452C196.762975 210.59516 208.11362 218.856033 214.296555 235.325773zM359.5882 235.325773c4.10613-18.547677 14.394065-25.743579 30.913549-21.63971 14.394065 6.182936 19.562904 18.547677 15.456774 37.096485-2.076806 10.337679-4.153612 18.547677-6.182936 24.730613-8.259742 37.096485-14.441547 59.798905-18.547677 68.008903-8.259742 18.547677-19.610387 25.793323-34.004452 21.63971-12.365872-6.182936-16.518354-18.547677-12.365872-37.096485C347.222328 293.047871 355.434588 262.134323 359.5882 235.325773zM807.831267 813.40484 807.831267 692.843809c0-16.470871-7.244515-24.730613-21.63971-24.730613l-58.735064 0 0 173.114291c-2.077937 16.46974-11.351775 24.730613-27.821516 24.730613-16.518354-2.077937-24.730613-11.351775-24.730613-27.821516L674.904363 668.113196l-68.008903 0 0 173.114291c-2.077937 14.392934-11.351775 22.652676-27.821516 24.730613-16.518354-2.077937-24.730613-10.337679-24.730613-24.730613L554.343332 668.113196l-58.736195 0c-16.518354 0-23.716517 9.273839-21.63971 27.821516l0 145.292775c-2.076806 18.547677-11.350645 28.835612-27.821516 30.913549-18.547677 0-27.821516-9.273839-27.821516-27.821516L418.324395 665.021162c-4.153612-35.019679 14.394065-51.490549 55.644162-49.461226l105.105388 0 24.730613-58.735064L430.689136 556.824872c-18.547677 0-28.884225-7.197032-30.913549-21.63971 0-16.470871 9.273839-25.744709 27.821516-27.821516l429.69539 0c16.46974 2.076806 25.743579 10.336548 27.821516 24.730613-2.077937 16.518354-10.336548 24.730613-24.730613 24.730613l-197.844904 0-24.730613 58.735064 166.931355 0c37.096485 0 55.644162 19.610387 55.644162 58.735064l0 164.811588c-0.856951 20.567956-0.234022 35.755662-26.868468 35.0649-24.617559-0.638756-26.551917-20.598481-26.16188-35.134994M826.378944 216.778096 668.721427 216.778096l0 46.370323 160.74955 0c41.200353-2.028193 59.749161 17.534711 55.644162 58.735064-4.153612 20.625614-9.273839 39.173291-15.456774 55.644162-8.260873 16.519484-20.625614 22.70242-37.096485 18.547677-14.442678-6.182936-18.547677-17.484967-12.365872-34.004452 14.394065-41.200353 12.365872-59.749161-6.182936-55.644162L668.721427 306.426709l0 139.109839c-2.077937 20.625614-11.351775 31.976259-27.821516 34.005582-14.442678-2.029323-21.63971-14.394065-21.63971-37.096485L619.260201 306.426709 480.150362 306.426709c-16.518354 2.077937-24.730613 11.351775-24.730613 27.821516l0 34.004452c-2.076806 18.547677-11.350645 27.821516-27.821516 27.821516-16.518354 0-24.730613-9.273839-24.730613-27.821516l0-52.552129c-4.153612-37.096485 16.470871-54.580321 61.827098-52.552129l154.566614 0 0-46.370323L477.058329 216.778096c-18.547677 0-28.884225-7.195902-30.913549-21.63971-2.076806-14.392934 6.182936-22.652676 24.730613-24.730613l352.411517 0c16.46974 2.077937 25.743579 10.337679 27.821516 24.730613C851.109557 209.582194 842.848684 216.778096 826.378944 216.778096zM501.788942 426.988871l55.644162 0c14.394065 2.077937 22.652676 9.273839 24.730613 21.63971 0 12.365872-7.244515 18.548808-21.63971 18.548808l-58.736195 0c-18.547677 0-28.884225-6.182936-30.913549-18.548808C472.904716 436.26271 483.241265 429.065677 501.788942 426.988871zM501.788942 346.614096l58.736195 0c14.394065 2.077937 21.63971 9.273839 21.63971 21.63971s-7.244515 18.547677-21.63971 18.547677l-58.736195 0c-18.547677 0-27.821516-6.182936-27.821516-18.547677S483.241265 348.692033 501.788942 346.614096zM724.365589 346.614096l58.735064 0c14.394065 2.077937 21.63971 10.337679 21.63971 24.730613 0 12.365872-7.244515 18.547677-21.63971 18.547677l-58.735064 0c-18.547677 0-27.821516-7.195902-27.821516-21.63971C696.542943 355.887935 705.816781 348.692033 724.365589 346.614096zM724.365589 423.896838l58.735064 0c14.394065 2.077937 21.63971 10.337679 21.63971 24.730613 0 12.365872-7.244515 18.548808-21.63971 18.548808l-58.735064 0c-18.547677 0-27.821516-7.197032-27.821516-21.640841C696.542943 433.170677 705.816781 425.974775 724.365589 423.896838z" fill="#666"></path></g></g></svg>