<?xml version="1.0" standalone="no"?><!DOCTYPE svg PUBLIC "-//W3C//DTD SVG 1.1//EN" "http://www.w3.org/Graphics/SVG/1.1/DTD/svg11.dtd"><svg width="64" height="64" viewBox="0 0 64 64" version="1.1" xmlns="http://www.w3.org/2000/svg" xmlns:xlink="http://www.w3.org/1999/xlink"><defs><style type="text/css"><![CDATA[
@font-face { font-family: ifont; src: url("http://at.alicdn.com/t/font_1442373896_4754455.eot?#iefix") format("embedded-opentype"), url("http://at.alicdn.com/t/font_1442373896_4754455.woff") format("woff"), url("http://at.alicdn.com/t/font_1442373896_4754455.ttf") format("truetype"), url("http://at.alicdn.com/t/font_1442373896_4754455.svg#ifont") format("svg"); }

]]></style></defs><g class="transform-group"><g transform="scale(0.0625, 0.0625)"><path d="M409.6 409.6 101.928711 409.6C45.321274 409.6 0 455.446042 0 512 0 568.948242 45.635038 614.4 101.928711 614.4L409.6 614.4 409.6 938.455613C409.6 985.72688 455.446042 1024 512 1024 568.438882 1024 614.4 985.700475 614.4 938.455613L614.4 614.4 922.071286 614.4C978.678729 614.4 1024 568.553958 1024 512 1024 455.051758 978.364962 409.6 922.071286 409.6L614.4 409.6 614.4 85.544388C614.4 38.273119 568.553958 0 512 0 455.561118 0 409.6 38.299527 409.6 85.544388L409.6 409.6 409.6 409.6Z" fill="#B6B7BA"></path></g></g></svg>