<?xml version="1.0" standalone="no"?><!DOCTYPE svg PUBLIC "-//W3C//DTD SVG 1.1//EN" "http://www.w3.org/Graphics/SVG/1.1/DTD/svg11.dtd"><svg width="200" height="200" viewBox="0 0 200 200" version="1.1" xmlns="http://www.w3.org/2000/svg" xmlns:xlink="http://www.w3.org/1999/xlink"><defs><style type="text/css"><![CDATA[
@font-face { font-family: ifont; src: url("http://at.alicdn.com/t/font_1442373896_4754455.eot?#iefix") format("embedded-opentype"), url("http://at.alicdn.com/t/font_1442373896_4754455.woff") format("woff"), url("http://at.alicdn.com/t/font_1442373896_4754455.ttf") format("truetype"), url("http://at.alicdn.com/t/font_1442373896_4754455.svg#ifont") format("svg"); }

]]></style></defs><g class="transform-group"><g transform="scale(0.1953125, 0.1953125)"><path d="M964.59247 194.576557c-49.969065-14.253632-97.088222-20.064988-140.670833-20.064988-188.894138 0-311.109644 108.875686-311.109644 108.875686l-1.260713-0.054235-1.233084 0.054235c0 0-122.200156-108.875686-311.087131-108.875686-43.556005 0-90.674139 5.811356-140.671856 20.064988-14.253632 4.056386-24.149003 17.377786-24.149003 32.673144l0 569.483202c0 18.969027 14.911618 33.880645 32.674167 33.880645 1.562589 0 3.207042-0.110517 4.852518-0.328481 27.931143-4.27742 69.567425-8.991792 118.331036-8.991792 88.645946 0 200.948685 15.405875 297.79029 76.532047 6.852058 4.275373 14.557554 6.467295 22.261003 6.467295 0.410346 0 0.822738-0.055259 1.233084-0.055259 0.438998 0 0.848321 0.055259 1.260713 0.055259 7.701402 0 15.406898-2.192945 22.233374-6.467295 96.885608-61.126172 209.193463-76.532047 297.81178-76.532047 48.818869 0 90.427522 4.714372 118.358665 8.991792 1.645476 0.217964 3.235694 0.328481 4.853541 0.328481 17.732873 0 32.673144-14.911618 32.673144-33.880645L988.74352 227.249701C988.769103 211.954343 978.846102 198.632943 964.59247 194.576557L964.59247 194.576557 964.59247 194.576557zM493.538021 861.863273c-82.752726-48.737004-187.243545-74.448596-303.244512-74.448596-51.559283 0-95.443769 5.098111-123.128295 9.318226L67.165214 227.249701c0 0 0.055259-0.054235 0.081864-0.054235 43.830251-12.499685 88.2356-18.804275 131.982964-18.804275 39.828101 0 79.738066 5.207605 118.66054 15.514345 31.30396 8.277524 62.030775 19.900236 91.388407 34.482349 49.668213 24.669866 78.641081 49.77873 79.682807 50.709939l4.962012 4.441149L493.538021 861.863273 493.538021 861.863273 493.538021 861.863273zM956.013071 796.732903c-27.712155-4.220115-71.567989-9.318226-123.156948-9.318226-116.001991 0-220.473367 25.711592-303.267025 74.448596l-0.411369-548.3243 4.989641-4.441149c1.041726-0.931209 30.019711-26.040073 79.69611-50.709939 29.362748-14.582113 60.121286-26.203802 91.396593-34.482349 38.923498-10.30674 78.833463-15.514345 118.661563-15.514345 43.74634 0 88.179318 6.304589 131.98194 18.804275 0.027629 0 0.080841 0.054235 0.109494 0.054235L956.013071 796.732903 956.013071 796.732903 956.013071 796.732903zM201.723839 174.511569c2.248204 0 4.441149 0 6.688329 0.055259l-0.027629-0.055259L201.723839 174.511569 201.723839 174.511569 201.723839 174.511569zM201.723839 174.511569" fill="#272636"></path></g></g></svg>