<?xml version="1.0" standalone="no"?><!DOCTYPE svg PUBLIC "-//W3C//DTD SVG 1.1//EN" "http://www.w3.org/Graphics/SVG/1.1/DTD/svg11.dtd"><svg width="16" height="16" viewBox="0 0 16 16" version="1.1" xmlns="http://www.w3.org/2000/svg" xmlns:xlink="http://www.w3.org/1999/xlink"><defs><style type="text/css"><![CDATA[
@font-face { font-family: ifont; src: url("http://at.alicdn.com/t/font_1442373896_4754455.eot?#iefix") format("embedded-opentype"), url("http://at.alicdn.com/t/font_1442373896_4754455.woff") format("woff"), url("http://at.alicdn.com/t/font_1442373896_4754455.ttf") format("truetype"), url("http://at.alicdn.com/t/font_1442373896_4754455.svg#ifont") format("svg"); }

]]></style></defs><g class="transform-group"><g transform="scale(0.015625, 0.015625)"><path d="M512 223.999958c-88.351983 0-159.99997 71.615987-159.99997 159.99997s71.679987 159.99997 159.99997 159.99997 159.99997-71.615987 159.99997-159.99997S600.351983 223.999958 512 223.999958zM512 479.99991c-53.02399 0-95.999982-42.975992-95.999982-95.999982s42.975992-95.999982 95.999982-95.999982 95.999982 42.975992 95.999982 95.999982S565.02399 479.99991 512 479.99991zM512 0C299.93604 0 128.000072 171.935968 128.000072 383.999928c0 160.57597 320.12794 640.35188 383.999928 639.99988 62.847988 0.352 383.999928-481.59991 383.999928-639.99988C895.999928 171.935968 724.06396 0 512 0zM512 927.999826C458.78401 928.255826 192.00006 517.791903 192.00006 383.999928 192.00006 207.263961 335.264033 63.999988 512 63.999988c176.735967 0 319.99994 143.263973 319.99994 319.99994C831.99994 515.999903 564.38399 928.255826 512 927.999826z" fill="#666"></path></g></g></svg>