<?xml version="1.0" standalone="no"?><!DOCTYPE svg PUBLIC "-//W3C//DTD SVG 1.1//EN" "http://www.w3.org/Graphics/SVG/1.1/DTD/svg11.dtd"><svg width="32" height="32" viewBox="0 0 32 32" version="1.1" xmlns="http://www.w3.org/2000/svg" xmlns:xlink="http://www.w3.org/1999/xlink"><defs><style type="text/css"><![CDATA[
@font-face { font-family: ifont; src: url("http://at.alicdn.com/t/font_1442373896_4754455.eot?#iefix") format("embedded-opentype"), url("http://at.alicdn.com/t/font_1442373896_4754455.woff") format("woff"), url("http://at.alicdn.com/t/font_1442373896_4754455.ttf") format("truetype"), url("http://at.alicdn.com/t/font_1442373896_4754455.svg#ifont") format("svg"); }

]]></style></defs><g class="transform-group"><g transform="scale(0.03125, 0.03125)"><path d="M579.057767 64.940035 444.939163 64.940035c-12.354376 0-22.352077 9.997702-22.352077 22.353101l0 134.11758c0 12.355399 9.997702 22.354124 22.352077 22.354124l134.118604 0c12.355399 0 22.353101-9.998725 22.353101-22.354124L601.410867 87.293135C601.410867 74.937736 591.413166 64.940035 579.057767 64.940035zM579.057767 422.588621 444.939163 422.588621c-12.354376 0-22.352077 9.997702-22.352077 22.352077l0 134.11758c0 12.356422 9.997702 22.354124 22.352077 22.354124l134.118604 0c12.355399 0 22.353101-9.997702 22.353101-22.354124L601.410867 444.940698C601.410867 432.586322 591.413166 422.588621 579.057767 422.588621zM579.057767 780.237207 444.939163 780.237207c-12.354376 0-22.352077 9.996678-22.352077 22.353101l0 134.118604c0 12.353352 9.997702 22.351054 22.352077 22.351054l134.118604 0c12.355399 0 22.353101-9.997702 22.353101-22.351054L601.410867 802.590308C601.410867 790.233885 591.413166 780.237207 579.057767 780.237207z" fill="#B6B7BA"></path></g></g></svg>