<?xml version="1.0" standalone="no"?><!DOCTYPE svg PUBLIC "-//W3C//DTD SVG 1.1//EN" "http://www.w3.org/Graphics/SVG/1.1/DTD/svg11.dtd"><svg width="32" height="32" viewBox="0 0 32 32" version="1.1" xmlns="http://www.w3.org/2000/svg" xmlns:xlink="http://www.w3.org/1999/xlink"><defs><style type="text/css"><![CDATA[
@font-face { font-family: ifont; src: url("http://at.alicdn.com/t/font_1442373896_4754455.eot?#iefix") format("embedded-opentype"), url("http://at.alicdn.com/t/font_1442373896_4754455.woff") format("woff"), url("http://at.alicdn.com/t/font_1442373896_4754455.ttf") format("truetype"), url("http://at.alicdn.com/t/font_1442373896_4754455.svg#ifont") format("svg"); }

]]></style></defs><g class="transform-group"><g transform="scale(0.03125, 0.03125)"><path d="M741.038952 554.723034 369.777323 925.859819c-29.953196 29.953196-78.595033 29.953196-108.421338 0l0 0c-30.015617-30.015617-30.015617-78.469166-0.124843-108.547205l0 0 316.829925-316.767504-316.829925-317.02026c-29.889751-29.952172-29.889751-78.405721 0-108.420315l0 0c29.953196-29.953196 78.594009-29.953196 108.546182 0l0 0 371.261629 371.134739c14.092973 14.284331 22.336728 33.980929 22.336728 54.30686l0 0C763.375679 520.743128 755.132948 540.504194 741.038952 554.723034L741.038952 554.723034z" fill="#0058d3"></path></g></g></svg>