<?xml version="1.0" standalone="no"?><!DOCTYPE svg PUBLIC "-//W3C//DTD SVG 1.1//EN" "http://www.w3.org/Graphics/SVG/1.1/DTD/svg11.dtd"><svg width="16" height="16" viewBox="0 0 16 16" version="1.1" xmlns="http://www.w3.org/2000/svg" xmlns:xlink="http://www.w3.org/1999/xlink"><defs><style type="text/css"><![CDATA[
@font-face { font-family: ifont; src: url("http://at.alicdn.com/t/font_1442373896_4754455.eot?#iefix") format("embedded-opentype"), url("http://at.alicdn.com/t/font_1442373896_4754455.woff") format("woff"), url("http://at.alicdn.com/t/font_1442373896_4754455.ttf") format("truetype"), url("http://at.alicdn.com/t/font_1442373896_4754455.svg#ifont") format("svg"); }

]]></style></defs><g class="transform-group"><g transform="scale(0.015625, 0.015625)"><path d="M495.941767 913.437905 495.941767 736.922702c0-0.203638 0-0.407276 0.01535-0.611937-134.418432-8.27957-240.878093-119.882368-240.878093-256.512165l0-6.288217 0.047072 0c-0.031722-0.548492-0.047072-1.096984-0.047072-1.653663 0-13.305027 10.772344-24.086581 24.085558-24.086581 13.314237 0 24.086581 10.781554 24.086581 24.086581 0 0.556679-0.016373 1.105171-0.047072 1.653663l0.047072 0 0 8.476045c0 115.39824 93.459578 208.78721 208.747301 208.78721 115.304096 0 208.747301-93.475951 208.747301-208.78721l0-8.476045 0.047072 0c-0.030699-0.548492-0.047072-1.096984-0.047072-1.653663 0-13.305027 10.772344-24.086581 24.086581-24.086581 13.313214 0 24.085558 10.781554 24.085558 24.086581 0 0.556679-0.01535 1.105171-0.047072 1.653663l0.047072 0 0 6.288217c0 136.552026-106.427938 248.233618-240.878093 256.512165 0.01535 0.203638 0.01535 0.407276 0.01535 0.611937l0 176.515203 88.23867 0c13.344936 0 24.164353 10.694573 24.164353 24.085558 0 13.297864-10.709923 24.085558-24.164353 24.085558l-208.590735 0c-13.344936 0-24.164353-10.69355-24.164353-24.085558 0-13.296841 10.709923-24.085558 24.164353-24.085558L495.941767 913.437905zM511.999488 62.389956c-88.708368 0-160.575162 71.92103-160.575162 160.637584l0 256.794597c0 88.590688 71.898517 160.637584 160.575162 160.637584 88.708368 0 160.575162-71.92103 160.575162-160.637584L672.57465 223.027539C672.57465 134.436852 600.676134 62.389956 511.999488 62.389956zM624.402511 479.955166c0 62.035892-50.446949 112.332415-112.403023 112.332415-62.08194 0-112.403023-50.188053-112.403023-112.332415L399.596466 222.89451c0-62.034868 50.446949-112.331391 112.403023-112.331391 62.08194 0 112.403023 50.187029 112.403023 112.331391L624.402511 479.955166z" fill="#b6b7ba"></path></g></g></svg>