<?xml version="1.0" standalone="no"?><!DOCTYPE svg PUBLIC "-//W3C//DTD SVG 1.1//EN" "http://www.w3.org/Graphics/SVG/1.1/DTD/svg11.dtd"><svg width="16" height="16" viewBox="0 0 16 16" version="1.1" xmlns="http://www.w3.org/2000/svg" xmlns:xlink="http://www.w3.org/1999/xlink"><defs><style type="text/css"><![CDATA[
@font-face { font-family: ifont; src: url("http://at.alicdn.com/t/font_1442373896_4754455.eot?#iefix") format("embedded-opentype"), url("http://at.alicdn.com/t/font_1442373896_4754455.woff") format("woff"), url("http://at.alicdn.com/t/font_1442373896_4754455.ttf") format("truetype"), url("http://at.alicdn.com/t/font_1442373896_4754455.svg#ifont") format("svg"); }

]]></style></defs><g class="transform-group"><g transform="scale(0.015625, 0.015625)"><path d="M510.719332 49.850361c-249.223155 0-451.256544 202.034413-451.256544 451.255521s202.033389 451.255521 451.256544 451.255521c249.221108 0 451.254497-202.034413 451.254497-451.255521S759.94044 49.850361 510.719332 49.850361zM510.719332 908.36026c-228.877781 0-407.255401-178.37762-407.255401-407.254378 0-228.876758 178.37762-407.254378 407.255401-407.254378 228.874711 0 407.254378 178.378643 407.254378 407.254378C917.972687 729.98264 739.594043 908.36026 510.719332 908.36026zM750.930229 384.582005 812.23548 384.582005 511.122515 712.798259 209.200114 384.582005 270.642488 384.582005 511.122515 646.003993Z" fill="#666"></path></g></g></svg>