<?xml version="1.0" standalone="no"?><!DOCTYPE svg PUBLIC "-//W3C//DTD SVG 1.1//EN" "http://www.w3.org/Graphics/SVG/1.1/DTD/svg11.dtd"><svg width="16" height="16" viewBox="0 0 16 16" version="1.1" xmlns="http://www.w3.org/2000/svg" xmlns:xlink="http://www.w3.org/1999/xlink"><defs><style type="text/css"><![CDATA[
@font-face { font-family: ifont; src: url("http://at.alicdn.com/t/font_1442373896_4754455.eot?#iefix") format("embedded-opentype"), url("http://at.alicdn.com/t/font_1442373896_4754455.woff") format("woff"), url("http://at.alicdn.com/t/font_1442373896_4754455.ttf") format("truetype"), url("http://at.alicdn.com/t/font_1442373896_4754455.svg#ifont") format("svg"); }

]]></style></defs><g class="transform-group"><g transform="scale(0.015625, 0.015625)"><path d="M933.664064 304.467363c-8.333806 0-15.092743 6.755868-15.092743 15.090697l0 483.661581c0 34.355459-27.89942 62.310138-62.23339 62.402235-5.497201-0.162706-62.588477-5.087878-62.588477-73.708745L793.749454 173.813674c0-25.388227-20.659529-46.040592-46.044686-46.040592L124.275933 127.773082c-28.027333 0-50.830689 22.802332-50.830689 50.830689l0 573.044308c0 79.491449 64.671928 144.163377 144.164401 144.163377l638.550231 0 0.01842 0 0 0 0 0c51.048653-0.00921 92.580558-41.541115 92.580558-92.592838L948.758853 319.55806C948.753737 311.223231 941.997869 304.467363 933.664064 304.467363L933.664064 304.467363zM109.641631 747.43308 109.641631 184.460152c0-11.187807 9.097192-20.286022 20.282952-20.286022l612.473319 0c8.586562 0 15.579837 6.990205 15.579837 15.579837l0 618.344027c0 23.600511 9.033747 45.131897 23.829731 61.312414l-560.188512 0C159.875732 859.409384 109.641631 809.17733 109.641631 747.43308L109.641631 747.43308zM688.404174 352.260879 179.149705 352.260879c-8.333806 0-15.08865 6.758937-15.08865 15.093766 0 8.334829 6.755868 15.089673 15.08865 15.089673l509.253446 0c8.334829 0 15.092743-6.755868 15.092743-15.089673C703.496917 359.019817 696.743096 352.260879 688.404174 352.260879L688.404174 352.260879zM688.404174 499.127831 179.149705 499.127831c-8.333806 0-15.08865 6.758937-15.08865 15.093766 0 8.334829 6.755868 15.090697 15.08865 15.090697l509.253446 0c8.334829 0 15.092743-6.756891 15.092743-15.090697C703.496917 505.886769 696.743096 499.127831 688.404174 499.127831L688.404174 499.127831zM688.404174 645.995807 179.149705 645.995807c-8.333806 0-15.08865 6.758937-15.08865 15.09172 0 8.334829 6.755868 15.090697 15.08865 15.090697l509.253446 0c8.334829 0 15.092743-6.756891 15.092743-15.090697C703.496917 652.755768 696.743096 645.995807 688.404174 645.995807L688.404174 645.995807zM688.404174 645.995807" fill="#666"></path></g></g></svg>