<?xml version="1.0" standalone="no"?><!DOCTYPE svg PUBLIC "-//W3C//DTD SVG 1.1//EN" "http://www.w3.org/Graphics/SVG/1.1/DTD/svg11.dtd"><svg width="16" height="16" viewBox="0 0 16 16" version="1.1" xmlns="http://www.w3.org/2000/svg" xmlns:xlink="http://www.w3.org/1999/xlink"><defs><style type="text/css"><![CDATA[
@font-face { font-family: ifont; src: url("http://at.alicdn.com/t/font_1442373896_4754455.eot?#iefix") format("embedded-opentype"), url("http://at.alicdn.com/t/font_1442373896_4754455.woff") format("woff"), url("http://at.alicdn.com/t/font_1442373896_4754455.ttf") format("truetype"), url("http://at.alicdn.com/t/font_1442373896_4754455.svg#ifont") format("svg"); }

]]></style></defs><g class="transform-group"><g transform="scale(0.015625, 0.015625)"><path d="M894.545626 331.141886l0 358.086561c0 5.738701-3.027963 11.06808-7.958252 14.015202-4.930289 2.947122-11.051707 3.077082-16.112979 0.350994L672.634514 597.065398l-10.709923-5.767354-3.042289-1.638313c0 0-1.827625-1.102101-2.63092-1.76111-5.910617-4.849448-7.763824-13.359262-4.00522-20.351514 4.27742-7.933693 14.178931-10.905374 22.12081-6.636141l187.528024 100.979856L861.894995 358.470301l-187.528024 100.979856c-5.061272 2.726088-11.18269 2.587941-16.112979-0.35918-4.938476-2.947122-7.958252-8.268314-7.958252-14.015202L650.295739 282.361903 162.105005 282.361903l0 455.645504 504.515538 0c9.019421 0 16.324804 7.305383 16.324804 16.324804 0 9.011234-7.305383 16.324804-16.324804 16.324804L145.779178 770.657015c-9.019421 0-16.324804-7.313569-16.324804-16.324804L129.454374 266.037099c0-9.019421 7.305383-16.324804 16.324804-16.324804l520.840342 0c9.019421 0 16.324804 7.305383 16.324804 16.324804L682.944324 417.747359l187.528024-100.979856c5.061272-2.726088 11.18269-2.587941 16.112979 0.35918C891.51664 320.072783 894.545626 325.394998 894.545626 331.141886zM682.829713 602.555435M650.393977 574.762439l32.435737 0 0 180.272783-32.435737 0 0-180.272783Z" fill="#666"></path></g></g></svg>